<svg xmlns="http://www.w3.org/2000/svg" fill-rule="evenodd" stroke-linejoin="round" stroke-miterlimit="2" clip-rule="evenodd" version="1.1" viewBox="0 0 2700 2020"><path d="M850.696 865.651c38.95-26.965 91.881-23.969 126.835 8.489 35.449 31.958 43.939 84.39 20.473 125.836 44.946 4.994 86.886-2.497 126.336-22.471 31.96-19.475 48.44-47.938 48.44-84.889-7.49-65.915-46.94-111.356-119.35-135.824-217.715-84.889-463.395 101.369-381.501 332.568 10.486 28.96 24.468 55.43 42.944 79.4 35.454 49.43 92.379 84.89 169.779 105.86 97.373 23.47 252.668 6.49 292.618-101.37-65.91 28.96-138.82 35.45-208.728 19.47-151.802-33.95-261.659-234.69-117.846-327.069Z" fill="url(#a)" transform="translate(-944.262 -994.702) scale(2.07133)"/><path d="M436.147 1222.409c3.103 13.463 7.24 25.87 11.378 39.313 14.479 39.294 32.064 76.536 52.75 111.707 69.3-84.82 138.6-148.95 208.932-194.456-13.445-32.064-22.754-65.164-27.926-98.264-61.026-3.086-142.735 43.456-245.134 141.7Z" fill="#564bf2"/><path d="M1102.25 837.65c27.925 34.132 43.44 74.471 47.582 116.88 22.744 6.205 43.436 9.308 63.093 8.273 152.036-181.006 160.321-310.296 24.815-389.939 9.32 73.437-13.443 146.874-61.022 203.763-20.692 24.823-46.543 45.51-74.468 61.024Z" fill="#791bd1"/><path d="M884.652 1274.62c-77.4-20.97-134.325-56.43-169.779-105.86 56.926 38.45 128.333 50.43 195.246 32.45 70.907-26.46 89.383-63.41 139.321-110.35 79.89-72.91 153.3-6.49 131.33 71.4-32.96 117.35-195.749 136.83-296.118 112.36Z" fill="url(#b)" transform="translate(-944.262 -994.702) scale(2.07133)"/><path d="M1006.99 920.08c-56.424 16.978-134.822 1.498-200.237-9.987-29.461-4.994-56.426-9.488-77.399-10.487-18.476-.499-36.453 0-53.431 2.997-49.435 50.434-56.925 135.827-3.994 186.757l.499 1c7.49-4.5 14.481-8.99 20.973-12.98 17.976-11.49 34.455-22.48 46.939-28.97 81.394-42.44 167.781-48.933 257.664-48.434 31.956-15.48 38.946-61.919 8.986-79.896Z" fill="url(#c)" transform="translate(-944.262 -994.702) scale(2.07133)"/><path d="M676.423 902.603c-37.451 5.992-71.407 21.971-97.373 54.429-21.972 27.464-31.959 60.918-32.958 90.878-2.996 109.36 67.413 77.9 126.336 42.45l-.499-1c-23.969-68.41-19.475-132.328 3.994-186.757h.5Z" fill="url(#d)" transform="translate(-944.262 -994.702) scale(2.07133)"/><path d="M714.873 1168.76c56.926 38.45 128.333 50.43 195.246 32.45 12.983-4.99 24.468-9.98 33.956-15.48 7.989 2.5 16.478 5 24.467 6.99 69.908 15.98 142.818 9.49 208.728-19.47v.5c-29.96 80.4-123.34 107.86-201.736 110.36-8.989 0-17.977 0-27.465-.5h-2.496l-2.497-.5c-19.475-1-39.449-3.5-58.424-8.49-77.4-20.97-134.325-56.43-169.779-105.86Z" fill="url(#e)" transform="translate(-944.262 -994.702) scale(2.07133)"/><path d="M1051.44 755.793c28.96 24.968 34.45 56.427 25.46 91.382-10.48 40.947-36.45 62.418-69.91 72.905 7.49 25.966 5 54.928-8.986 79.896 44.946 4.994 86.886-2.497 126.336-22.471 31.96-19.974 48.44-47.938 48.44-84.889-7.49-64.916-45.94-109.858-115.35-134.325-2-.5-4-1.998-5.99-2.498Z" fill="url(#f)" transform="translate(-944.262 -994.702) scale(2.07133)"/><defs><linearGradient id="a" x1="0" x2="1" y1="0" y2="0" gradientTransform="matrix(0 537.219 537.219 0 916.534 1278.52)" gradientUnits="userSpaceOnUse"><stop offset="0" stop-color="#3193f4" stop-opacity="1"/><stop offset="1" stop-color="#a117f2" stop-opacity="1"/></linearGradient><linearGradient id="b" x1="0" x2="1" y1="0" y2="0" gradientTransform="rotate(-61.601 1473.552 -178.508) scale(334.438)" gradientUnits="userSpaceOnUse"><stop offset="0" stop-color="#d81c70" stop-opacity="1"/><stop offset="1" stop-color="#f2b159" stop-opacity="1"/></linearGradient><linearGradient id="c" x1="0" x2="1" y1="0" y2="0" gradientTransform="rotate(170.93 439.413 513.725) scale(389.401)" gradientUnits="userSpaceOnUse"><stop offset="0" stop-color="#f24d50" stop-opacity="1"/><stop offset=".3" stop-color="#f27746" stop-opacity="1"/><stop offset="1" stop-color="#f2a53a" stop-opacity="1"/></linearGradient><linearGradient id="d" x1="0" x2="1" y1="0" y2="0" gradientTransform="scale(179.7458 -179.7458) rotate(-13.871 -22.324 -14.91)" gradientUnits="userSpaceOnUse"><stop offset="0" stop-color="#ffc391" stop-opacity="1"/><stop offset="1" stop-color="#f69a48" stop-opacity="1"/></linearGradient><linearGradient id="e" x1="0" x2="1" y1="0" y2="0" gradientTransform="rotate(-.598 118073.326 -71628.352) scale(666.40324)" gradientUnits="userSpaceOnUse"><stop offset="0" stop-color="#3b1ab5" stop-opacity="1"/><stop offset="1" stop-color="#db28c3" stop-opacity="1"/></linearGradient><linearGradient id="f" x1="0" x2="1" y1="0" y2="0" gradientTransform="rotate(-112.989 889.144 133.329) scale(332.151)" gradientUnits="userSpaceOnUse"><stop offset="0" stop-color="#d60b66" stop-opacity="1"/><stop offset="1" stop-color="#f2b159" stop-opacity="1"/></linearGradient></defs></svg>