<?xml version="1.0" encoding="utf-8"?>
<svg xmlns="http://www.w3.org/2000/svg" viewBox="186.6835 529.577 1322.9857 1135.533" width="1322.99px" height="1135.53px" preserveAspectRatio="none"><defs><linearGradient id="a" x1="0" x2="1" y1="0" y2="0" gradientTransform="matrix(0, 1112.757857, 1112.757857, 0, 954.18239, 1653.534921)" gradientUnits="userSpaceOnUse"><stop offset="0" stop-color="#3193f4" stop-opacity="1"/><stop offset="1" stop-color="#a117f2" stop-opacity="1"/></linearGradient><linearGradient id="b" x1="0" x2="1" y1="0" y2="0" gradientTransform="matrix(329.4692, -609.366002, 609.366002, 329.4692, 981.543522, 1496.304673)" gradientUnits="userSpaceOnUse"><stop offset="0" stop-color="#d81c70" stop-opacity="1"/><stop offset="1" stop-color="#f2b159" stop-opacity="1"/></linearGradient><linearGradient id="c" x1="0" x2="1" y1="0" y2="0" gradientTransform="matrix(-796.492925, 127.149895, -127.149895, -796.492925, 1032.441337, 976.700845)" gradientUnits="userSpaceOnUse"><stop offset="0" stop-color="#f24d50" stop-opacity="1"/><stop offset="0.3" stop-color="#f27746" stop-opacity="1"/><stop offset="1" stop-color="#f2a53a" stop-opacity="1"/></linearGradient><linearGradient id="d" x1="0" x2="1" y1="0" y2="0" gradientTransform="matrix(361.45548, 89.257061, 89.257061, -361.45548, 144.179943, 1159.756485)" gradientUnits="userSpaceOnUse"><stop offset="0" stop-color="#ffc391" stop-opacity="1"/><stop offset="1" stop-color="#f69a48" stop-opacity="1"/></linearGradient><linearGradient id="e" x1="0" x2="1" y1="0" y2="0" gradientTransform="matrix(1380.265929, -14.406455, 14.406455, 1380.265929, 617.536329, 1549.752758)" gradientUnits="userSpaceOnUse"><stop offset="0" stop-color="#3b1ab5" stop-opacity="1"/><stop offset="1" stop-color="#db28c3" stop-opacity="1"/></linearGradient><linearGradient id="f" x1="0" x2="1" y1="0" y2="0" gradientTransform="matrix(-268.699203, -633.35375, 633.35375, -268.699203, 1362.501754, 1084.766826)" gradientUnits="userSpaceOnUse"><stop offset="0" stop-color="#d60b66" stop-opacity="1"/><stop offset="1" stop-color="#f2b159" stop-opacity="1"/></linearGradient></defs><g id="object-0"><g><g><path d="M 817.81 798.347 C 898.488 742.493 1008.13 748.699 1080.53 815.93 C 1153.95 882.126 1171.54 990.73 1122.93 1076.58 C 1216.03 1086.92 1302.9 1071.41 1384.62 1030.03 C 1450.82 989.694 1484.95 930.738 1484.95 854.2 C 1469.44 717.669 1387.72 623.545 1237.74 572.864 C 786.78 397.031 277.895 782.833 447.525 1261.72 C 469.245 1321.71 498.206 1376.54 536.476 1426.19 C 609.913 1528.57 727.823 1602.02 888.144 1645.46 C 1089.84 1694.07 1411.5 1658.9 1494.25 1435.49 C 1357.73 1495.47 1206.71 1508.91 1061.91 1475.82 C 747.476 1405.49 519.926 989.694 817.81 798.347 L 817.81 798.347 Z" fill="url(#a)"/><path d="M436.147 1222.409c3.103 13.463 7.24 25.87 11.378 39.313 14.479 39.294 32.064 76.536 52.75 111.707 69.3-84.82 138.6-148.95 208.932-194.456-13.445-32.064-22.754-65.164-27.926-98.264-61.026-3.086-142.735 43.456-245.134 141.7Z" fill="#564bf2"/><path d="M1102.25 837.65c27.925 34.132 43.44 74.471 47.582 116.88 22.744 6.205 43.436 9.308 63.093 8.273 152.036-181.006 160.321-310.296 24.815-389.939 9.32 73.437-13.443 146.874-61.022 203.763-20.692 24.823-46.543 45.51-74.468 61.024Z" fill="#791bd1"/><path d="M 888.144 1645.46 C 727.823 1602.02 609.913 1528.57 536.476 1426.19 C 654.388 1505.83 802.296 1530.64 940.895 1493.4 C 1087.77 1438.59 1126.04 1362.06 1229.47 1264.83 C 1394.95 1113.81 1547.01 1251.39 1501.5 1412.72 C 1433.23 1655.79 1096.04 1696.14 888.144 1645.46 L 888.144 1645.46 Z" fill="url(#b)"/><path d="M 1141.55 911.087 C 1024.67 946.254 862.286 914.19 726.79 890.401 C 665.766 880.057 609.913 870.748 566.471 868.679 C 528.201 867.645 490.965 868.679 455.798 874.887 C 353.401 979.352 337.887 1156.23 447.525 1261.72 L 448.558 1263.79 C 464.073 1254.47 478.553 1245.17 492 1236.91 C 529.235 1213.11 563.368 1190.34 589.226 1176.9 C 757.82 1088.99 936.756 1075.55 1122.93 1076.58 C 1189.13 1044.51 1203.6 948.324 1141.55 911.087 L 1141.55 911.087 Z" fill="url(#c)"/><path d="M 456.833 874.887 C 379.26 887.298 308.926 920.396 255.142 987.627 C 209.63 1044.51 188.944 1113.81 186.875 1175.87 C 180.669 1402.39 326.509 1337.22 448.558 1263.79 L 447.525 1261.72 C 397.877 1120.02 407.186 987.627 455.798 874.887 L 456.833 874.887 L 456.833 874.887 Z" fill="url(#d)"/><path d="M 536.476 1426.19 C 654.388 1505.83 802.296 1530.64 940.895 1493.4 C 967.787 1483.06 991.576 1472.73 1011.23 1461.34 C 1027.78 1466.51 1045.36 1471.69 1061.91 1475.82 C 1206.71 1508.91 1357.73 1495.47 1494.25 1435.49 L 1494.25 1436.52 C 1432.2 1603.06 1238.78 1659.93 1076.39 1665.11 C 1057.77 1665.11 1039.15 1665.11 1019.5 1664.08 L 1014.33 1664.08 L 1009.16 1663.04 C 968.82 1660.97 927.448 1655.79 888.144 1645.46 C 727.823 1602.02 609.913 1528.57 536.476 1426.19 Z" fill="url(#e)"/><path d="M 1233.62 570.795 C 1293.6 622.512 1304.97 687.674 1286.35 760.077 C 1264.65 844.892 1210.85 889.365 1141.55 911.087 C 1157.06 964.871 1151.9 1024.86 1122.93 1076.58 C 1216.03 1086.92 1302.9 1071.41 1384.62 1030.03 C 1450.82 988.661 1484.95 930.738 1484.95 854.2 C 1469.44 719.738 1389.8 626.648 1246.03 575.969 C 1241.88 574.933 1237.74 571.83 1233.62 570.795 L 1233.62 570.795 Z" fill="url(#f)"/></g></g></g></svg>